<?xml version="1.0" encoding="utf-8"?>
<svg version="1.1" id="Layer_1" x="0px" y="0px" width="1400px" height="980px" viewBox="0 0 500 500" enable-background="new 0 0 1400 980" xmlns="http://www.w3.org/2000/svg">
  <path id="XMLID_495_" d="M 249.851 473.997 C 247.169 473.997 244.485 473.997 241.804 473.997 C 170.863 471.613 106.481 436.739 64.753 378.616 C 22.128 319.003 9.907 244.486 31.368 174.44 L 73.396 37.329 C 75.482 30.772 81.742 26.003 88.597 26.003 L 411.403 26.003 C 418.26 26.003 424.518 30.474 426.606 37.329 L 468.632 174.44 C 490.093 244.486 477.873 319.003 435.249 378.616 C 393.519 437.036 329.137 471.613 258.197 473.997 C 255.217 473.997 252.535 473.997 249.851 473.997 Z" style="fill: rgb(255, 41, 102);"/>
  <g transform="matrix(1.531664, 0, 0, 1.455087, -763.633118, -243.043243)" style="">
    <rect x="339.469" y="266.909" width="78.037" height="78.037" rx="9" ry="9" style="stroke-width: 9px; fill: rgb(255, 255, 255);" transform="matrix(0.972498, 0.232913, -0.232913, 0.972498, 322.129639, -2.068565)"/>
    <rect x="339.469" y="266.909" width="78.037" height="78.037" rx="9" ry="9" style="stroke-width: 9px; fill: rgb(255, 255, 255);" transform="matrix(0.792424, -0.60997, 0.60997, 0.792424, 241.094482, 311.10788)"/>
    <rect x="339.469" y="266.909" width="78.037" height="78.037" rx="9" ry="9" style="stroke-width: 9px; fill: rgb(255, 255, 255);" transform="matrix(0.867623, 0.497222, -0.497222, 0.867623, 435.196228, -180.753555)"/>
  </g>
</svg>