<?xml version="1.0" standalone="no"?>
<!DOCTYPE svg PUBLIC "-//W3C//DTD SVG 20010904//EN"
 "http://www.w3.org/TR/2001/REC-SVG-20010904/DTD/svg10.dtd">
<svg version="1.0" xmlns="http://www.w3.org/2000/svg"
 width="500.000000pt" height="500.000000pt" viewBox="0 0 500.000000 500.000000"
 preserveAspectRatio="xMidYMid meet">
<metadata>
Created by potrace 1.11, written by Peter Selinger 2001-2013
</metadata>
<g transform="translate(0.000000,500.000000) scale(0.100000,-0.100000)"
fill="#000000" stroke="none">
<path d="M825 4726 c-55 -24 -97 -91 -120 -192 -5 -20 -94 -311 -147 -479 -17
-55 -33 -104 -34 -110 -1 -5 -18 -64 -39 -130 -183 -595 -227 -753 -239 -845
-2 -19 -7 -46 -10 -60 -23 -100 -29 -483 -11 -615 53 -378 165 -687 351 -973
82 -126 131 -189 238 -311 93 -106 236 -236 345 -313 36 -26 71 -51 76 -56 59
-50 345 -195 488 -247 88 -32 229 -73 267 -79 8 -2 40 -8 70 -14 30 -6 71 -14
90 -17 172 -27 544 -27 693 0 15 3 39 7 55 10 15 3 43 8 62 11 79 13 229 57
343 100 306 116 581 295 806 524 383 390 610 868 668 1405 15 137 8 461 -12
566 -3 13 -7 41 -10 64 -4 22 -10 56 -15 75 -5 19 -12 49 -14 66 -7 38 -64
229 -197 664 -55 179 -114 370 -130 425 -17 55 -34 111 -39 125 -5 14 -23 72
-40 130 -17 58 -36 121 -42 140 -20 67 -50 109 -93 130 -41 20 -61 20 -1686
20 -1344 -1 -1650 -3 -1674 -14z"/>
</g>
</svg>
